<?xml version="1.0" encoding="iso-8859-1"?>
<!-- Generator: Adobe Illustrator 16.0.0, SVG Export Plug-In . SVG Version: 6.00 Build 0)  -->
<!DOCTYPE svg PUBLIC "-//W3C//DTD SVG 1.1//EN" "http://www.w3.org/Graphics/SVG/1.1/DTD/svg11.dtd">
<svg version="1.1" id="Capa_1" xmlns="http://www.w3.org/2000/svg" xmlns:xlink="http://www.w3.org/1999/xlink" x="0px" y="0px"
	 width="913.9px" height="913.9px" viewBox="0 0 913.9 913.9" style="enable-background:new 0 0 913.9 913.9;" xml:space="preserve"
	>
<g>
	<path d="M849.4,248.6c-2.8-69-32.3-132.9-83.1-179.8c-24-22.1-51.3-39.3-81.2-51.1C655.201,6,623.601,0,591.101,0
		c-3.5,0-7.1,0.1-10.6,0.2c-69,2.8-132.8,32.3-179.8,83.2L109.801,397.3c-9.3,10.101-8.8,25.801,1.2,35.2l20.2,19
		c10.1,9.5,26,9,35.5-1.2l291.1-314.1c33.2-36,81.9-56.7,133.5-56.7c46.4,0,89.9,16.5,122.3,46.5c35.5,32.8,56.2,77.4,58.101,125.8
		c1.899,48.3-14.9,94.3-47.5,129.6l0,0l0,0l-395.4,422.1c-19.8,21.4-48.7,33.7-79.4,33.7c-27.6,0-53.5-9.8-72.8-27.7
		c-21.1-19.5-33.3-46-34.6-74.8c-1.2-28.7,8.8-56.1,28.1-77l0,0l0,0c0,0,368-392.7,368.601-393.2c32.199-33.4,82.699,15.2,50.5,48.6
		c-54.7,56.7-195.2,208.4-264,282.9c-9.301,10.101-8.801,25.8,1.199,35.2l20.2,19c10.101,9.5,26,9,35.5-1.2l264.9-285.6
		c41.899-45.4,39.1-116.5-6.4-158.5c-20.7-19.1-47.8-29.7-76.1-29.7c-15.3,0-30.101,3-44.101,9c-14.399,6.1-27.199,15.1-37.8,26.7
		l0,0l0,0l-369.3,393.8c-69.3,75.1-64.5,192.6,10.6,262c33,30.5,77.5,47.2,125.3,47.2c53.1,0,102.8-20.9,136.4-57.3l0,0l0,0
		l395.4-422.101C827.801,383.7,852.101,317.7,849.4,248.6z"/>
</g>
<g>
</g>
<g>
</g>
<g>
</g>
<g>
</g>
<g>
</g>
<g>
</g>
<g>
</g>
<g>
</g>
<g>
</g>
<g>
</g>
<g>
</g>
<g>
</g>
<g>
</g>
<g>
</g>
<g>
</g>
</svg>
